<?xml version="1.0" encoding="UTF-8"?>
<svg xmlns="http://www.w3.org/2000/svg" xmlns:xlink="http://www.w3.org/1999/xlink" width="375pt" height="374.999991pt" viewBox="0 0 375 374.999991" version="1.2">
<defs>
<clipPath id="clip1">
  <path d="M 375 187.503906 C 375 291.050781 291.054688 375 187.5 375 C 83.945312 375 0 291.050781 0 187.503906 C 0 83.949219 83.945312 0 187.5 0 C 291.054688 0 375 83.949219 375 187.503906 Z M 375 187.503906 "/>
</clipPath>
<clipPath id="clip2">
  <path d="M 30.792969 65 L 344.292969 65 L 344.292969 290.671875 L 30.792969 290.671875 Z M 30.792969 65 "/>
</clipPath>
</defs>
<g id="surface1">
<g clip-path="url(#clip1)" clip-rule="nonzero">
<rect x="0" y="0" width="375" height="374.999991" style="fill:rgb(31.369019%,74.119568%,89.408875%);fill-opacity:1;stroke:none;"/>
</g>
<path style=" stroke:none;fill-rule:evenodd;fill:rgb(52.159119%,85.099792%,96.859741%);fill-opacity:1;" d="M 290.828125 169.0625 C 276.207031 165.714844 276.207031 165.714844 274.996094 151.6875 C 271.597656 116.316406 242.441406 89.648438 207.167969 89.648438 C 180.714844 89.648438 156.359375 105.316406 145.132812 129.527344 C 139.820312 141.070312 138.597656 145.355469 127.359375 140.878906 C 120.527344 138.164062 114.105469 138.621094 114.105469 138.621094 C 100.59375 138.621094 89.609375 149.605469 89.609375 163.109375 C 89.609375 165.347656 90.066406 167.835938 91.023438 170.683594 C 96.660156 184.535156 95.734375 186.066406 82.300781 193.785156 C 68.476562 201.839844 60.21875 215.988281 60.21875 231.664062 C 60.21875 255.972656 80 275.742188 104.304688 275.75 L 280.648438 275.75 L 280.648438 275.742188 C 310.367188 275.742188 334.535156 251.582031 334.535156 221.871094 C 334.535156 196.113281 316.15625 173.902344 290.828125 169.0625 Z M 290.828125 169.0625 "/>
<g clip-path="url(#clip2)" clip-rule="nonzero">
<path style=" stroke:none;fill-rule:evenodd;fill:rgb(100%,100%,100%);fill-opacity:1;" d="M 284.675781 144.90625 C 280.382812 100.21875 243.160156 65.15625 197.339844 65.15625 C 161.882812 65.15625 131.519531 86.199219 117.53125 116.386719 C 113.316406 115.046875 108.925781 114.128906 104.273438 114.128906 C 79.929688 114.128906 60.183594 133.871094 60.183594 158.203125 C 60.183594 163.046875 61.15625 167.617188 62.597656 171.960938 C 43.65625 183 30.792969 203.28125 30.792969 226.761719 C 30.792969 261.921875 59.304688 290.425781 94.476562 290.425781 L 94.476562 290.433594 L 270.820312 290.433594 L 270.820312 290.425781 C 311.410156 290.425781 344.292969 257.550781 344.292969 216.964844 C 344.292969 181.144531 318.625 151.394531 284.675781 144.90625 M 270.824219 270.839844 L 270.824219 270.851562 L 94.476562 270.851562 C 70.167969 270.839844 50.386719 251.066406 50.386719 226.765625 C 50.386719 211.085938 58.644531 196.9375 72.46875 188.886719 C 85.902344 181.164062 86.824219 179.632812 81.191406 165.785156 C 80.238281 162.929688 79.78125 160.441406 79.78125 158.203125 C 79.78125 144.699219 90.765625 133.71875 104.273438 133.71875 C 104.273438 133.71875 110.699219 133.261719 117.53125 135.976562 C 128.765625 140.449219 129.992188 136.164062 135.300781 124.617188 C 146.527344 100.410156 170.886719 84.742188 197.339844 84.742188 C 232.609375 84.742188 261.769531 111.410156 265.164062 146.785156 C 266.378906 160.808594 266.378906 160.808594 281 164.15625 C 306.324219 168.996094 324.703125 191.207031 324.703125 216.964844 C 324.707031 246.675781 300.539062 270.839844 270.824219 270.839844 "/>
</g>
<path style=" stroke:none;fill-rule:nonzero;fill:rgb(100%,100%,100%);fill-opacity:1;" d="M 79.207031 239.417969 C 79.207031 239.753906 79.171875 240.085938 79.105469 240.417969 C 79.042969 240.746094 78.945312 241.066406 78.816406 241.378906 C 78.6875 241.6875 78.527344 241.984375 78.339844 242.265625 C 78.15625 242.542969 77.941406 242.804688 77.703125 243.042969 C 77.464844 243.277344 77.207031 243.492188 76.925781 243.679688 C 76.648438 243.867188 76.351562 244.023438 76.039062 244.152344 C 75.730469 244.28125 75.410156 244.378906 75.078125 244.445312 C 74.75 244.507812 74.414062 244.542969 74.078125 244.542969 C 73.742188 244.542969 73.410156 244.507812 73.078125 244.445312 C 72.746094 244.378906 72.425781 244.28125 72.117188 244.152344 C 71.804688 244.023438 71.507812 243.867188 71.230469 243.679688 C 70.949219 243.492188 70.691406 243.277344 70.453125 243.042969 C 70.214844 242.804688 70.003906 242.542969 69.816406 242.265625 C 69.628906 241.984375 69.46875 241.6875 69.339844 241.378906 C 69.210938 241.066406 69.113281 240.746094 69.050781 240.417969 C 68.984375 240.085938 68.949219 239.753906 68.949219 239.417969 C 68.949219 239.078125 68.984375 238.746094 69.050781 238.417969 C 69.113281 238.085938 69.210938 237.765625 69.339844 237.453125 C 69.46875 237.144531 69.628906 236.847656 69.816406 236.570312 C 70.003906 236.289062 70.214844 236.03125 70.453125 235.792969 C 70.691406 235.554688 70.949219 235.339844 71.230469 235.152344 C 71.507812 234.96875 71.804688 234.808594 72.117188 234.679688 C 72.425781 234.550781 72.746094 234.453125 73.078125 234.390625 C 73.410156 234.324219 73.742188 234.289062 74.078125 234.289062 C 74.414062 234.289062 74.75 234.324219 75.078125 234.390625 C 75.410156 234.453125 75.730469 234.550781 76.039062 234.679688 C 76.351562 234.808594 76.648438 234.96875 76.925781 235.152344 C 77.207031 235.339844 77.464844 235.554688 77.703125 235.792969 C 77.941406 236.03125 78.15625 236.289062 78.339844 236.570312 C 78.527344 236.847656 78.6875 237.144531 78.816406 237.453125 C 78.945312 237.765625 79.042969 238.085938 79.105469 238.417969 C 79.171875 238.746094 79.207031 239.078125 79.207031 239.417969 Z M 79.207031 239.417969 "/>
<path style=" stroke:none;fill-rule:evenodd;fill:rgb(100%,100%,100%);fill-opacity:1;" d="M 110.585938 182.703125 C 110.570312 182.703125 110.570312 182.714844 110.550781 182.714844 C 87.570312 182.730469 68.949219 201.355469 68.949219 224.332031 C 68.949219 227.039062 71.144531 229.230469 73.847656 229.230469 C 76.550781 229.230469 78.746094 227.039062 78.746094 224.332031 L 78.746094 224.324219 C 78.746094 206.75 93 192.5 110.578125 192.5 L 110.585938 192.5 C 113.289062 192.5 115.484375 190.308594 115.484375 187.601562 C 115.484375 184.894531 113.289062 182.703125 110.585938 182.703125 "/>
</g>
</svg>
