<?xml version="1.0" encoding="UTF-8"?>
<svg xmlns="http://www.w3.org/2000/svg" xmlns:xlink="http://www.w3.org/1999/xlink" width="375pt" height="374.999991pt" viewBox="0 0 375 374.999991" version="1.2">
<defs>
<clipPath id="clip1">
  <path d="M 22.316406 68.566406 L 352.316406 68.566406 L 352.316406 306.269531 L 22.316406 306.269531 Z M 22.316406 68.566406 "/>
</clipPath>
</defs>
<g id="surface1">
<rect x="0" y="0" width="375" height="374.999991" style="fill:rgb(100%,100%,100%);fill-opacity:1;stroke:none;"/>
<rect x="0" y="0" width="375" height="374.999991" style="fill:rgb(100%,100%,100%);fill-opacity:1;stroke:none;"/>
<rect x="0" y="0" width="375" height="374.999991" style="fill:rgb(65.098572%,91.369629%,94.509888%);fill-opacity:1;stroke:none;"/>
<path style=" stroke:none;fill-rule:evenodd;fill:rgb(65.098572%,91.369629%,94.509888%);fill-opacity:1;" d="M 296.035156 178.195312 C 280.648438 174.671875 280.648438 174.671875 279.371094 159.898438 C 275.792969 122.648438 245.101562 94.558594 207.972656 94.558594 C 180.125 94.558594 154.492188 111.0625 142.671875 136.558594 C 137.082031 148.714844 135.792969 153.230469 123.964844 148.515625 C 116.773438 145.65625 110.011719 146.140625 110.011719 146.140625 C 95.789062 146.140625 84.226562 157.703125 84.226562 171.929688 C 84.226562 174.289062 84.710938 176.90625 85.714844 179.90625 C 91.648438 194.496094 90.675781 196.105469 76.535156 204.234375 C 61.980469 212.71875 53.289062 227.617188 53.289062 244.128906 C 53.289062 269.730469 74.113281 290.550781 99.699219 290.558594 L 285.324219 290.558594 L 285.324219 290.550781 C 316.601562 290.550781 342.046875 265.105469 342.046875 233.8125 C 342.042969 206.6875 322.695312 183.296875 296.035156 178.195312 Z M 296.035156 178.195312 "/>
<g clip-path="url(#clip1)" clip-rule="nonzero">
<path style=" stroke:none;fill-rule:evenodd;fill:rgb(100%,100%,100%);fill-opacity:1;" d="M 289.558594 152.757812 C 285.042969 105.695312 245.859375 68.765625 197.628906 68.765625 C 160.304688 68.765625 128.34375 90.925781 113.617188 122.71875 C 109.179688 121.308594 104.5625 120.34375 99.664062 120.34375 C 74.039062 120.34375 53.253906 141.136719 53.253906 166.761719 C 53.253906 171.859375 54.277344 176.675781 55.792969 181.25 C 35.855469 192.875 22.316406 214.234375 22.316406 238.964844 C 22.316406 275.996094 52.328125 306.015625 89.351562 306.015625 L 89.351562 306.023438 L 274.976562 306.023438 L 274.976562 306.015625 C 317.703125 306.015625 352.316406 271.390625 352.316406 228.644531 C 352.316406 190.921875 325.292969 159.589844 289.558594 152.757812 M 274.976562 285.386719 L 274.976562 285.398438 L 89.351562 285.398438 C 63.761719 285.386719 42.941406 264.5625 42.941406 238.96875 C 42.941406 222.453125 51.632812 207.554688 66.1875 199.074219 C 80.328125 190.941406 81.296875 189.332031 75.363281 174.746094 C 74.363281 171.738281 73.882812 169.117188 73.882812 166.761719 C 73.882812 152.539062 85.441406 140.972656 99.664062 140.972656 C 99.664062 140.972656 106.425781 140.492188 113.617188 143.351562 C 125.445312 148.066406 126.734375 143.550781 132.324219 131.390625 C 144.140625 105.894531 169.78125 89.394531 197.625 89.394531 C 234.753906 89.394531 265.445312 117.480469 269.023438 154.734375 C 270.300781 169.503906 270.300781 169.503906 285.691406 173.03125 C 312.347656 178.128906 331.695312 201.519531 331.695312 228.648438 C 331.699219 259.9375 306.257812 285.386719 274.976562 285.386719 "/>
</g>
<path style=" stroke:none;fill-rule:nonzero;fill:rgb(100%,100%,100%);fill-opacity:1;" d="M 73.277344 252.292969 C 73.277344 252.648438 73.242188 252.996094 73.171875 253.34375 C 73.105469 253.691406 73 254.03125 72.867188 254.359375 C 72.730469 254.6875 72.5625 254.996094 72.367188 255.292969 C 72.171875 255.585938 71.945312 255.859375 71.695312 256.109375 C 71.445312 256.359375 71.171875 256.585938 70.878906 256.78125 C 70.582031 256.976562 70.273438 257.144531 69.945312 257.28125 C 69.617188 257.414062 69.28125 257.519531 68.933594 257.585938 C 68.585938 257.65625 68.234375 257.691406 67.878906 257.691406 C 67.523438 257.691406 67.175781 257.65625 66.828125 257.585938 C 66.480469 257.519531 66.140625 257.414062 65.8125 257.28125 C 65.488281 257.144531 65.175781 256.976562 64.878906 256.78125 C 64.585938 256.585938 64.3125 256.359375 64.0625 256.109375 C 63.8125 255.859375 63.589844 255.585938 63.390625 255.292969 C 63.195312 254.996094 63.027344 254.6875 62.894531 254.359375 C 62.757812 254.03125 62.65625 253.691406 62.585938 253.34375 C 62.515625 252.996094 62.480469 252.648438 62.480469 252.292969 C 62.480469 251.9375 62.515625 251.585938 62.585938 251.238281 C 62.65625 250.890625 62.757812 250.554688 62.894531 250.226562 C 63.027344 249.898438 63.195312 249.585938 63.390625 249.292969 C 63.589844 249 63.8125 248.726562 64.0625 248.476562 C 64.3125 248.222656 64.585938 248 64.878906 247.804688 C 65.175781 247.605469 65.488281 247.441406 65.8125 247.304688 C 66.140625 247.167969 66.480469 247.066406 66.828125 246.996094 C 67.175781 246.929688 67.523438 246.894531 67.878906 246.894531 C 68.234375 246.894531 68.585938 246.929688 68.933594 246.996094 C 69.28125 247.066406 69.617188 247.167969 69.945312 247.304688 C 70.273438 247.441406 70.582031 247.605469 70.878906 247.804688 C 71.171875 248 71.445312 248.222656 71.695312 248.476562 C 71.945312 248.726562 72.171875 249 72.367188 249.292969 C 72.5625 249.585938 72.730469 249.898438 72.867188 250.226562 C 73 250.554688 73.105469 250.890625 73.171875 251.238281 C 73.242188 251.585938 73.277344 251.9375 73.277344 252.292969 Z M 73.277344 252.292969 "/>
<path style=" stroke:none;fill-rule:evenodd;fill:rgb(100%,100%,100%);fill-opacity:1;" d="M 106.308594 192.5625 C 106.289062 192.5625 106.289062 192.574219 106.269531 192.574219 C 82.082031 192.59375 62.480469 212.210938 62.480469 236.40625 C 62.480469 239.257812 64.789062 241.5625 67.636719 241.5625 C 70.480469 241.5625 72.792969 239.257812 72.792969 236.40625 L 72.792969 236.398438 C 72.792969 217.890625 87.796875 202.878906 106.296875 202.878906 L 106.308594 202.878906 C 109.152344 202.878906 111.464844 200.574219 111.464844 197.722656 C 111.464844 194.871094 109.15625 192.5625 106.308594 192.5625 "/>
</g>
</svg>
